<?xml version="1.0"?>
<svg xmlns="http://www.w3.org/2000/svg" xmlns:xlink="http://www.w3.org/1999/xlink" version="1.1" id="Capa_1" x="0px" y="0px" viewBox="0 0 512 512" style="enable-background:new 0 0 512 512;" xml:space="preserve" width="512px" height="512px"><g><g>
	<g>
		<g>
			<path d="M202.667,149.333c2.729,0,5.458-1.042,7.542-3.125l21.333-21.333c4.167-4.167,4.167-10.917,0-15.083     c-4.167-4.167-10.917-4.167-15.083,0l-21.333,21.333c-4.167,4.167-4.167,10.917,0,15.083     C197.208,148.292,199.938,149.333,202.667,149.333z" data-original="#000000" class="active-path" data-old_color="#000000" fill="#FFFFFF"/>
			<path d="M259.125,109.792l-64,64c-4.167,4.167-4.167,10.917,0,15.083c2.083,2.083,4.813,3.125,7.542,3.125     c2.729,0,5.458-1.042,7.542-3.125l64-64c4.167-4.167,4.167-10.917,0-15.083C270.042,105.625,263.292,105.625,259.125,109.792z" data-original="#000000" class="active-path" data-old_color="#000000" fill="#FFFFFF"/>
			<path d="M504.978,58.104c-11.335-22.677-34.141-36.771-59.51-36.771h-206.7c-39.579,0-77.356,16.958-103.652,46.542     L34.954,180.542C12.357,205.948-0.083,238.667,0,274.042l17.847,137.667c2.552,19.729,11.71,38.354,25.785,52.417     c17.117,17.115,39.871,26.542,64.083,26.542h361.611C492.862,490.667,512,471.531,512,448V87.854     C512,77.583,509.573,67.292,504.978,58.104z M82.854,223.052L183,110.396c14.167-15.927,34.51-25.063,55.813-25.063h206.667     c0.99,0,1.813,0.5,2.521,2.521V256H64.854C66.813,244.708,72.281,234.969,82.854,223.052z M458.667,405.333h-384     c-5.896,0-10.667-4.771-10.667-10.667S68.771,384,74.667,384h384c5.896,0,10.667,4.771,10.667,10.667     S464.563,405.333,458.667,405.333z M458.667,341.333h-64c-5.896,0-10.667-4.771-10.667-10.667     c0-5.896,4.771-10.667,10.667-10.667h64c5.896,0,10.667,4.771,10.667,10.667C469.333,336.563,464.563,341.333,458.667,341.333z" data-original="#000000" class="active-path" data-old_color="#000000" fill="#FFFFFF"/>
		</g>
	</g>
</g></g> </svg>
