<?xml version="1.0"?>
<svg xmlns="http://www.w3.org/2000/svg" height="512px" viewBox="0 -85 512 512" width="512px"><g><path d="m263.320312 200.949219c-3.601562-4.796875-4.695312-11.023438-2.949218-16.761719l12.589844-41.964844h-37.089844l-22.753906 75.851563h44.132812c3.046875.003906 5.90625 1.46875 7.6875 3.9375 1.78125 2.472656 2.265625 5.648437 1.300781 8.539062l-12.550781 37.671875 49.71875-59.628906h-24.867188c-6.003906.027344-11.65625-2.8125-15.21875-7.644531zm0 0" data-original="#000000" class="active-path" data-old_color="#000000" fill="#fff"/><path d="m502.519531 94.816406c-5.238281 0-9.484375 4.242188-9.484375 9.480469v56.886719h-47.40625v-66.367188c0-5.238281-4.246094-9.484375-9.480468-9.484375h-170.667969v-47.40625h66.371093v-9.480469c0-15.710937-12.734374-28.445312-28.445312-28.445312h-94.8125c-15.710938 0-28.445312 12.734375-28.445312 28.445312v9.480469h66.371093v47.40625h-29.296875c-3.8125.035157-7.535156 1.160157-10.726562 3.242188l-70.769532 47.304687c-6.273437 4.097656-13.601562 6.300782-21.09375 6.34375h-29.300781c-5.234375 0-9.480469 4.246094-9.480469 9.480469v85.332031h-56.886718v-56.886718c0-5.238282-4.246094-9.480469-9.484375-9.480469-5.234375 0-9.480469 4.242187-9.480469 9.480469v132.742187c0 5.234375 4.246094 9.480469 9.480469 9.480469 5.238281 0 9.484375-4.246094 9.484375-9.480469v-56.890625h56.886718v75.851562c0 5.238282 4.246094 9.480469 9.480469 9.480469h199.113281c4.097657-.015625 8.085938-1.34375 11.375-3.792969l98.609376-73.953124c6.574218-4.90625 14.550781-7.566407 22.753906-7.585938h18.964844c5.234374 0 9.480468-4.246094 9.480468-9.480469v-66.371093h47.40625v56.886718c0 5.238282 4.246094 9.484375 9.484375 9.484375 5.234375 0 9.480469-4.246093 9.480469-9.484375v-132.738281c0-5.238281-4.246094-9.480469-9.480469-9.480469zm-388.742187 199.109375c0 5.238281-4.246094 9.480469-9.480469 9.480469-5.238281 0-9.480469-4.242188-9.480469-9.480469v-85.332031c0-5.238281 4.242188-9.484375 9.480469-9.484375 5.234375 0 9.480469 4.246094 9.480469 9.484375zm-2.75-116.527343c-2.710938 2.734374-6.808594 3.558593-10.367188 2.078124-3.558594-1.476562-5.867187-4.957031-5.84375-8.808593-.035156-1.246094.226563-2.480469.757813-3.605469.480469-1.148438 1.152343-2.207031 1.988281-3.128906 3.804688-3.507813 9.664062-3.507813 13.464844 0 .835937.921875 1.511718 1.980468 1.992187 3.128906 1.511719 3.527344.722657 7.621094-1.992187 10.335938zm206.933594 43.339843-81.871094 98.226563c-2.921875 3.496094-7.914063 4.417968-11.890625 2.199218-3.976563-2.21875-5.816407-6.949218-4.378907-11.269531l24.28125-72.859375h-30.976562c-5.992188.003906-11.632812-2.832031-15.214844-7.636718-3.578125-4.808594-4.671875-11.027344-2.953125-16.765626l22.757813-75.851562c2.4375-8 9.796875-13.476562 18.15625-13.523438h37.089844c5.996093 0 11.636718 2.832032 15.214843 7.640626 3.578125 4.808593 4.671875 11.023437 2.953125 16.765624l-12.589844 41.964844h24.867188c7.363281-.003906 14.0625 4.253906 17.183594 10.917969 3.121094 6.667969 2.105468 14.539063-2.609375 20.191406zm0 0" data-original="#000000" class="active-path" data-old_color="#000000" fill="#fff"/></g> </svg>
