<?xml version="1.0"?>
<svg xmlns="http://www.w3.org/2000/svg" xmlns:xlink="http://www.w3.org/1999/xlink" xmlns:svgjs="http://svgjs.com/svgjs" version="1.1" width="512" height="512" x="0" y="0" viewBox="0 0 384 384" style="enable-background:new 0 0 512 512" xml:space="preserve" class=""><g>
<g xmlns="http://www.w3.org/2000/svg">
	<g>
		<path d="M352.427,90.24l0.32-0.32L273.28,10.667L250.667,33.28l45.013,45.013c-20.053,7.68-34.347,26.987-34.347,49.707    c0,29.44,23.893,53.333,53.333,53.333c7.573,0,14.827-1.6,21.333-4.48v153.813C336,342.4,326.4,352,314.667,352    c-11.733,0-21.333-9.6-21.333-21.333v-96c0-23.573-19.093-42.667-42.667-42.667h-21.333V42.667C229.333,19.093,210.24,0,186.667,0    h-128C35.093,0,16,19.093,16,42.667V384h213.333V224h32v106.667c0,29.44,23.893,53.333,53.333,53.333    c29.44,0,53.333-23.893,53.333-53.333V128C368,113.28,362.027,99.947,352.427,90.24z M186.667,149.333h-128V42.667h128V149.333z     M314.667,149.333c-11.733,0-21.333-9.6-21.333-21.333s9.6-21.333,21.333-21.333c11.733,0,21.333,9.6,21.333,21.333    S326.4,149.333,314.667,149.333z" fill="#ffffffb3" data-original="#000000" style="" class=""/>
	</g>
</g>
<g xmlns="http://www.w3.org/2000/svg">
</g>
<g xmlns="http://www.w3.org/2000/svg">
</g>
<g xmlns="http://www.w3.org/2000/svg">
</g>
<g xmlns="http://www.w3.org/2000/svg">
</g>
<g xmlns="http://www.w3.org/2000/svg">
</g>
<g xmlns="http://www.w3.org/2000/svg">
</g>
<g xmlns="http://www.w3.org/2000/svg">
</g>
<g xmlns="http://www.w3.org/2000/svg">
</g>
<g xmlns="http://www.w3.org/2000/svg">
</g>
<g xmlns="http://www.w3.org/2000/svg">
</g>
<g xmlns="http://www.w3.org/2000/svg">
</g>
<g xmlns="http://www.w3.org/2000/svg">
</g>
<g xmlns="http://www.w3.org/2000/svg">
</g>
<g xmlns="http://www.w3.org/2000/svg">
</g>
<g xmlns="http://www.w3.org/2000/svg">
</g>
</g></svg>
