<?xml version="1.0"?>
<svg xmlns="http://www.w3.org/2000/svg" xmlns:xlink="http://www.w3.org/1999/xlink" version="1.1" id="Capa_1" x="0px" y="0px" viewBox="0 0 407.308 407.308" style="enable-background:new 0 0 407.308 407.308;" xml:space="preserve" width="512px" height="512px"><g><g>
	<g>
		<path d="M239.588,105.188l-97.52-97.6c-10.212-10.117-26.668-10.117-36.88,0l-97.6,97.6c-10.117,10.212-10.117,26.668,0,36.88    l97.6,97.52c10.212,10.117,26.668,10.117,36.88,0l20.72-20.72l76.8-76.8C249.705,131.856,249.705,115.4,239.588,105.188z     M136.188,77.668l-58.56,58.4c-9.223,9.223-24.177,9.223-33.4,0s-9.223-24.177,0-33.4h0.12l58.44-58.4    c9.223-9.223,24.177-9.223,33.4,0C145.411,53.491,145.411,68.445,136.188,77.668z" data-original="#000000" class="active-path" data-old_color="#000000" fill="#FFFFFF"/>
	</g>
</g><g>
	<g>
		<polygon points="184.388,213.948 175.148,223.188 351.228,399.268 372.988,402.388   " data-original="#000000" class="active-path" data-old_color="#000000" fill="#FFFFFF"/>
	</g>
</g><g>
	<g>
		<path d="M399.308,351.308l-18.12-18.12l-27.64,7.4c-3.116,0.834-6.318-1.015-7.152-4.131c-0.262-0.979-0.265-2.009-0.008-2.989    l7.4-27.68l-11.16-11.16c-10.781,10.781-28.259,10.781-39.04,0c-10.781-10.781-10.781-28.259,0-39.04l-80.4-80.44l-30.56,30.56    l199.6,199.44l15.08,2.16L399.308,351.308z" data-original="#000000" class="active-path" data-old_color="#000000" fill="#FFFFFF"/>
	</g>
</g></g> </svg>
