<?xml version="1.0"?>
<svg xmlns="http://www.w3.org/2000/svg" xmlns:xlink="http://www.w3.org/1999/xlink" version="1.1" id="Capa_1" x="0px" y="0px" viewBox="0 0 512.002 512.002" style="enable-background:new 0 0 512.002 512.002;" xml:space="preserve" width="512px" height="512px" class=""><g><g>
	<g>
		<path d="M511.546,72.669c-2.007-8.042-10.166-12.993-18.179-10.913l-120,30c-8.042,2.007-12.935,10.151-10.913,18.179    c2.021,8.119,10.241,12.922,18.179,10.913l120-30C508.675,88.841,513.568,80.697,511.546,72.669z" data-original="#000000" class="active-path" data-old_color="#000000" fill="#FFFFFF"/>
	</g>
</g><g>
	<g>
		<path d="M511.546,162.669c-2.007-8.057-10.166-12.92-18.179-10.913l-120,30c-8.042,2.007-12.935,10.151-10.913,18.179    c2.021,8.119,10.241,12.922,18.179,10.913l120-30C508.675,178.841,513.568,170.697,511.546,162.669z" data-original="#000000" class="active-path" data-old_color="#000000" fill="#FFFFFF"/>
	</g>
</g><g>
	<g>
		<path d="M511.546,252.669c-2.007-8.057-10.166-12.949-18.179-10.913l-120,30c-8.042,2.007-12.935,10.151-10.913,18.179    c2.021,8.119,10.241,12.922,18.179,10.913l120-30C508.675,268.841,513.568,260.697,511.546,252.669z" data-original="#000000" class="active-path" data-old_color="#000000" fill="#FFFFFF"/>
	</g>
</g><g>
	<g>
		<path d="M511.546,342.669c-2.007-8.042-10.166-12.964-18.179-10.913l-120,30c-8.042,2.007-12.935,10.151-10.913,18.179    c2.021,8.119,10.241,12.922,18.179,10.913l120-30C508.675,358.841,513.568,350.697,511.546,342.669z" data-original="#000000" class="active-path" data-old_color="#000000" fill="#FFFFFF"/>
	</g>
</g><g>
	<g>
		<path d="M0,256.302c0,103.649,108.384,188.43,242,194.42V61.882C108.384,67.871,0,152.653,0,256.302z" data-original="#000000" class="active-path" data-old_color="#000000" fill="#FFFFFF"/>
	</g>
</g><g>
	<g>
		<path d="M291.438,63.059c-6.35-0.654-12.94-0.701-19.438-0.992v388.469c6.498-0.291,13.088-0.339,19.438-0.992    C314.554,447.156,332,427.849,332,404.617V107.986C332,84.754,314.554,65.447,291.438,63.059z" data-original="#000000" class="active-path" data-old_color="#000000" fill="#FFFFFF"/>
	</g>
</g></g> </svg>
