<?xml version="1.0"?>
<svg xmlns="http://www.w3.org/2000/svg" xmlns:xlink="http://www.w3.org/1999/xlink" version="1.1" id="Capa_1" x="0px" y="0px" viewBox="0 0 54.665 54.665" style="enable-background:new 0 0 54.665 54.665;" xml:space="preserve" width="512px" height="512px" class=""><g><g>
	<g>
		<path d="M39.078,30.407l-0.209,1.868c-0.136-0.075-0.271-0.148-0.41-0.215l-0.381-1.653h-1.125l0.185,0.733    c-0.104-0.004-0.207-0.013-0.313-0.013H9.296c-0.105,0-0.208,0.009-0.312,0.013l1.655-6.632c0.31-1.881,2.396-3.505,4.451-3.505    h12.137v-1.091H15.701c-3.184,0-5.958,1.206-6.497,5.43L7.663,32.06c-0.141,0.064-0.276,0.139-0.41,0.215l-0.36-3.221    c0,0-5.132-2.265-6.351,0c-1.22,2.264,0,3.076,0,3.076l6.385,0.344c-1.193,0.797-1.958,2.008-1.958,3.369v6.154    c0,1.529,0.968,2.875,2.427,3.646v4.139c0,1.4,1.729,2.531,3.861,2.531s3.862-1.131,3.862-2.531v-3.439h15.226v3.439    c0,1.4,1.725,2.531,3.857,2.531c2.135,0,3.861-1.131,3.861-2.531v-3.84c1.82-0.688,3.09-2.192,3.09-3.945v-6.154    c0-1.361-0.766-2.572-1.959-3.369l6.387-0.344c0,0,0.146-0.486,0.104-1.727L39.078,30.407z M15.787,40.805h-6.97v-3.313h6.97    C15.787,37.492,15.787,40.805,15.787,40.805z M30.335,40.837h-13.57v-1.233h13.57V40.837z M30.335,38.759h-13.57v-1.233h13.57    V38.759z M38.265,40.805h-6.967v-3.313h6.967V40.805z" data-original="#000000" class="active-path" data-old_color="#000000" fill="#FFFFFF"/>
		<path d="M41.808,9.037c-0.861,0-1.468,0.056-1.785,0.143v5.728c0.375,0.087,0.808,0.115,1.47,0.115    c2.329,0,3.771-1.18,3.771-3.138C45.263,10.1,44.024,9.037,41.808,9.037z" data-original="#000000" class="active-path" data-old_color="#000000" fill="#FFFFFF"/>
		<path d="M28.433,2.352v26.232h26.232V2.352H28.433z M47.826,16.346c-1.5,1.383-3.716,2.043-6.306,2.043    c-0.574,0-1.095-0.028-1.498-0.115v6.966h-4.344V6.099c1.352-0.229,3.252-0.402,5.928-0.402c2.707,0,4.636,0.518,5.931,1.554    c1.269,0.979,2.071,2.59,2.071,4.49C49.608,13.64,49.004,15.281,47.826,16.346z" data-original="#000000" class="active-path" data-old_color="#000000" fill="#FFFFFF"/>
	</g>
</g></g> </svg>
