<?xml version="1.0"?>
<svg xmlns="http://www.w3.org/2000/svg" xmlns:xlink="http://www.w3.org/1999/xlink" version="1.1" id="Capa_1" x="0px" y="0px" width="512px" height="512px" viewBox="0 0 90.289 90.289" style="enable-background:new 0 0 90.289 90.289;" xml:space="preserve" class=""><g><g>
	<g>
		<polygon points="72.204,55.425 67.407,55.425 67.407,71.207 80.864,71.207 80.864,66.41 72.204,66.41   " data-original="#000000" class="active-path" data-old_color="#000000" fill="#FFFFFF"/>
		<path d="M70.04,47.395c-5.269,0-10.056,2.036-13.656,5.348l-0.723-0.332l-4.947-4.173l-8.502,8.455l-8.523-8.455l-4.947,4.173    l-10.297,4.739c-1.523,0.627-2.875,1.707-3.781,3.228L0,84.886h59.48c3.078,1.895,6.686,3.009,10.559,3.009    c11.166,0,20.25-9.084,20.25-20.25S81.206,47.395,70.04,47.395z M70.04,81.895c-7.856,0-14.25-6.393-14.25-14.25    s6.394-14.25,14.25-14.25s14.25,6.393,14.25,14.25S77.896,81.895,70.04,81.895z" data-original="#000000" class="active-path" data-old_color="#000000" fill="#FFFFFF"/>
		<path d="M42.145,49.256v0.005c0.01,0,0.02-0.002,0.029-0.002c0.006,0,0.014,0.002,0.02,0.002c0.002,0,0.004,0,0.008,0    c0.002,0,0.006,0,0.006,0c0.008,0,0.016-0.002,0.02-0.002c0.01,0,0.02,0.002,0.029,0.002v-0.005    c12.007,0.184,19.304-10.323,19.49-27.646c0.121-12.018-7.33-18.889-19.469-19.213V2.395c-0.018,0-0.031,0.002-0.051,0.002V2.395    c-0.01,0-0.018,0-0.025,0.002c-0.008-0.002-0.018-0.002-0.028-0.002v0.002c-0.018,0-0.033-0.002-0.049-0.002v0.004    c-12.136,0.324-19.591,7.195-19.47,19.213C22.844,38.933,30.141,49.439,42.145,49.256z" data-original="#000000" class="active-path" data-old_color="#000000" fill="#FFFFFF"/>
	</g>
</g></g> </svg>
