<?xml version="1.0"?>
<svg xmlns="http://www.w3.org/2000/svg" id="Capa_1" enable-background="new 0 0 512 512" height="512px" viewBox="0 0 512 512" width="512px"><g><g><path d="m20.434 360.502h470.715l-1.36 13.65c-4.21 33.683-28.158 53.35-52.496 53.35h-363.003c-27.506 0-49.037-23.681-52.466-53.1-.038-.306.151 1.56-1.39-13.9z" data-original="#000000" class="active-path" data-old_color="#000000" fill="#cd3c32"/><path d="m511.677 154.802-17.529 175.7h-476.694l-17.118-171.97c-4.582-40.327 38.915-58.966 58.996-35.89 48.313 55.708 53.485 66.705 69.715 64.77 6.1-.742 10.459-3.475 14.079-6.81 98.363-94.37 91.93-88.259 92.943-89.06 13.238-10.184 30.263-8.504 40.237-.2 99.389 83.514 94.784 79.836 97.003 81.1 9.28 5.333 20.224 4.654 29.578-4.52 55.234-54.272 51.731-50.89 52.756-51.71 25.266-19.672 60.078 3.188 56.034 38.59z" data-original="#000000" class="active-path" data-old_color="#000000" fill="#cd3c32"/></g></g> </svg>
