<?xml version="1.0"?>
<svg xmlns="http://www.w3.org/2000/svg" xmlns:xlink="http://www.w3.org/1999/xlink" version="1.1" id="Capa_1" x="0px" y="0px" viewBox="0 0 379.748 379.748" style="enable-background:new 0 0 379.748 379.748;" xml:space="preserve" width="512px" height="512px"><g><g>
	<g>
		<path d="M131.062,269.478c-0.931-0.526-1.747-1.233-2.4-2.08c-3.518-5.035-7.688-9.581-12.4-13.52    c-22.16-18.8-51.92-20.16-72-18.4c-6.546,0.578-13.042,1.621-19.44,3.12c-10.345,23.711-14.13,49.766-10.96,75.44    c4.88-3.882,10.011-7.436,15.36-10.64c25.686-16.058,56.567-21.616,86.24-15.52c5.678,1.212,11.264,2.815,16.72,4.8    C131.198,284.986,130.824,277.228,131.062,269.478z" data-original="#000000" class="active-path" data-old_color="#000000" fill="#FFFFFF"/>
	</g>
</g><g>
	<g>
		<path d="M358.422,122.198l-9.6-29.68l-94.88,29.36l9.2,29.68c1.305,4.218,5.781,6.581,10,5.28l80-24.64    C357.36,130.892,359.723,126.417,358.422,122.198z" data-original="#000000" class="active-path" data-old_color="#000000" fill="#FFFFFF"/>
	</g>
</g><g>
	<g>
		<path d="M340.822,5.878c-1.173-4.26-5.578-6.762-9.837-5.588s-6.762,5.578-5.588,9.837c0.044,0.159,0.092,0.316,0.146,0.471    l8.32,26.56l14.96-4.72L340.822,5.878z" data-original="#000000" class="active-path" data-old_color="#000000" fill="#FFFFFF"/>
	</g>
</g><g>
	<g>
		<path d="M258.024,195.371c-0.954-5.216-2.709-10.253-5.202-14.933v-0.24c3.937-1.467,6.069-5.73,4.88-9.76l-15.28-48.56l-14.96-48    l-3.6-12c-1.305-4.218-5.781-6.581-10-5.28l-128,39.44c-3.933,1.231-6.287,5.247-5.44,9.28c2.083,12.005,0.695,24.356-4,35.6    c-18.096-0.717-34.205-11.673-41.52-28.24c-1.812-4.043-6.557-5.852-10.6-4.04c-4.043,1.811-5.851,6.557-4.04,10.6    c8.347,18.961,25.489,32.603,45.84,36.48c-8.89,8.323-20.008,13.882-32,16c-4.327,0.895-7.109,5.127-6.214,9.454    c0.13,0.631,0.337,1.244,0.614,1.826c2.96,6.24,9.6,25.36,5.44,37.68c5.594-0.853,11.228-1.414,16.88-1.68    c24.534-1.913,49.011,4.361,69.6,17.84c4.852,3.442,9.33,7.384,13.36,11.76c3.305-13.946,11.474-26.256,23.04-34.72    c5.111,27.946,31.908,46.458,59.854,41.347C244.622,250.115,263.134,223.317,258.024,195.371z M139.942,184.518    c-8.412,2.493-17.262-2.254-19.84-10.64l-12.08-39.04c-2.37-8.243,2.183-16.889,10.32-19.6l68.88-21.28    c8.218-2.32,16.81,2.222,19.52,10.32l6.08,19.92l6,19.52c2.37,8.243-2.183,16.889-10.32,19.6L139.942,184.518z M227.514,233.135    c-3.052,2.099-6.417,3.7-9.971,4.743h0c-18.363,5.967-38.086-4.082-44.053-22.445c-1.079-3.321-1.654-6.784-1.707-10.275    c3.2-1.36,7.12-2.88,11.84-4.56c1.701,6.354,5.169,12.096,10,16.56c4.92,4.202,11.211,6.451,17.68,6.32h2.96    c4.418-0.398,7.678-4.302,7.28-8.72s-4.302-7.678-8.72-7.28c-3.079,0.501-6.226-0.344-8.64-2.32    c-2.662-2.626-4.522-5.956-5.36-9.6c10-3.2,22.4-6.88,37.68-11.04C247.445,200.425,243.421,222.191,227.514,233.135z" data-original="#000000" class="active-path" data-old_color="#000000" fill="#FFFFFF"/>
	</g>
</g><g>
	<g>
		<rect x="245.124" y="58.896" transform="matrix(0.9545 -0.2983 0.2983 0.9545 -8.6919 94.391)" width="119.567" height="33.553" data-original="#000000" class="active-path" data-old_color="#000000" fill="#FFFFFF"/>
	</g>
</g><g>
	<g>
		<polygon points="200.182,136.438 131.622,157.638 135.302,169.158 203.862,147.958   " data-original="#000000" class="active-path" data-old_color="#000000" fill="#FFFFFF"/>
	</g>
</g><g>
	<g>
		<polygon points="191.622,109.398 123.142,130.918 126.822,142.438 195.382,121.238   " data-original="#000000" class="active-path" data-old_color="#000000" fill="#FFFFFF"/>
	</g>
</g><g>
	<g>
		<path d="M143.445,338.663c-0.066-0.211-0.14-0.42-0.223-0.625c-3.236-8.739-5.856-17.694-7.84-26.8    c-5.714-2.6-11.626-4.74-17.68-6.4c-29.764-7.983-61.542-2.104-86.48,16c-5.059,3.496-9.822,7.402-14.24,11.68    c2.781,14.303,6.741,28.351,11.84,42c1.469,3.977,5.785,6.118,9.84,4.88l99.52-30.72    C142.401,347.365,144.757,342.882,143.445,338.663z" data-original="#000000" class="active-path" data-old_color="#000000" fill="#FFFFFF"/>
	</g>
</g></g> </svg>
