<?xml version="1.0"?>
<svg xmlns="http://www.w3.org/2000/svg" xmlns:xlink="http://www.w3.org/1999/xlink" version="1.1" id="Capa_1" x="0px" y="0px" viewBox="0 0 512 512" style="enable-background:new 0 0 512 512;" xml:space="preserve" width="512px" height="512px" class=""><g><g>
	<g>
		<polygon points="292.007,120 219.993,120 201.5,138.493 201.5,373.507 219.993,392 292.007,392 310.5,373.507 310.5,138.493   " data-original="#000000" class="active-path" data-old_color="#000000" fill="#FF73FA"/>
	</g>
</g><g>
	<g>
		<path d="M341.713,0H170.287L81.5,88.787v334.427L170.287,512h171.426l88.787-88.787V88.787L341.713,0z M400.502,117.449H400.5    l-60,24.853v227.396l60,24.853v16.236l-11.481,11.481l-60-24.853l-13.105,13.105l24.852,60L329.286,482H313.05l-24.853-60h-64.396    l-24.853,60h-16.236l-11.481-11.481l24.853-60l-13.105-13.105l-60,24.853l-11.479-11.48v-16.236l60-24.853V142.302l-60-24.853    v-16.236l11.481-11.481l60,24.853l13.105-13.105l-24.852-60L182.714,30h16.236l24.853,60h64.396l24.853-60h16.236l11.481,11.481    l-24.853,60l13.105,13.105l60-24.853l11.481,11.481V117.449z" data-original="#000000" class="active-path" data-old_color="#000000" fill="#FF73FA"/>
	</g>
</g></g> </svg>
