<?xml version="1.0"?>
<svg xmlns="http://www.w3.org/2000/svg" id="Layer_1" enable-background="new 0 0 511.999 511.999" height="512px" viewBox="0 0 511.999 511.999" width="512px" class=""><g><g><path d="m210.38 42h91.238c7.931 0 14.383-6.729 14.383-15v-27h-120.004v27c0 8.271 6.452 15 14.383 15z" data-original="#000000" class="active-path" data-old_color="#000000" fill="#FFFFFF"/><path d="m436 0h-89.998v27c0 24.813-19.91 45-44.383 45h-91.239c-24.474 0-44.384-20.187-44.384-45v-27h-89.996c-8.284 0-15 6.716-15 15v481.999c0 8.284 6.716 15 15 15h360c8.284 0 15-6.716 15-15v-481.999c0-8.284-6.716-15-15-15zm-195.007 434h-104.994c-8.284 0-15-6.716-15-15s6.716-15 15-15h104.994c8.284 0 15 6.716 15 15s-6.716 15-15 15zm135.004-60h-239.998c-8.284 0-15-6.716-15-15s6.716-15 15-15h239.998c8.284 0 15 6.716 15 15s-6.716 15-15 15zm0-60h-239.998c-8.284 0-15-6.716-15-15s6.716-15 15-15h239.998c8.284 0 15 6.716 15 15s-6.716 15-15 15zm.005-60h-240.004c-8.284 0-15-6.716-15-15s6.716-15 15-15h15.002v-16.89c0-8.284 6.716-15 15-15s15 6.716 15 15v16.89h29.999v-89.002c0-8.284 6.716-15 15-15s15 6.716 15 15v89.002h30.001v-31.78c0-8.284 6.716-15 15-15s15 6.716 15 15v31.78h30v-55.068c0-8.284 6.716-15 15-15s15 6.716 15 15v55.068h15.003c8.284 0 15 6.716 15 15s-6.716 15-15.001 15z" data-original="#000000" class="active-path" data-old_color="#000000" fill="#FFFFFF"/></g></g> </svg>
