<?xml version="1.0"?>
<svg xmlns="http://www.w3.org/2000/svg" xmlns:xlink="http://www.w3.org/1999/xlink" version="1.1" id="Capa_1" x="0px" y="0px" viewBox="0 0 60.725 60.725" style="enable-background:new 0 0 60.725 60.725;" xml:space="preserve" width="512px" height="512px"><g transform="matrix(-1 0 0 1 60.725 0)"><g>
	<g>
		<circle cx="19.969" cy="6.008" r="6.008" data-original="#010002" class="active-path" data-old_color="#010002" fill="#FFFFFF"/>
		<path d="M53.99,37.782c-6.299,3.684-10.077-1.721-12.923-6.924c-0.124-0.501-0.307-1.009-0.57-1.522    c-2.203-4.285-4.502-8.527-6.908-12.703c4.699-1.499,8.996-0.13,12.375,4.602c2.748,3.85,9.176,0.158,6.396-3.737    c-6.54-9.159-16.292-11.432-26.055-5.636c-0.406,0.241-0.732,0.521-0.993,0.828c-0.148,0.058-0.295,0.122-0.44,0.19    c-0.397,0.08-0.806,0.233-1.219,0.478c-6.069,3.603-11.709,2.92-15.921-2.98c-2.75-3.85-9.176-0.158-6.395,3.737    c5.374,7.527,12.919,10.392,20.857,7.96c2.491,4.278,4.856,8.632,7.128,13.032c-3.358,1.717-6.467,3.853-9.357,6.368    c-0.125,0.109-0.236,0.222-0.341,0.335c-0.629,0.323-1.184,0.868-1.575,1.676c-1.942,4.015-3.886,8.028-5.828,12.043    c-2.086,4.312,4.626,7.438,6.704,3.146c1.846-3.814,3.694-7.633,5.541-11.445c0.25-0.141,0.498-0.309,0.736-0.518    c3.352-2.918,7.191-5.283,11.396-6.748c0.207-0.072,0.396-0.158,0.574-0.254c5.148,6.533,12.33,10.131,20.93,5.105    C62.633,42.167,58.535,35.126,53.99,37.782z" data-original="#010002" class="active-path" data-old_color="#010002" fill="#FFFFFF"/>
	</g>
</g></g> </svg>
