<?xml version="1.0"?>
<svg xmlns="http://www.w3.org/2000/svg" xmlns:xlink="http://www.w3.org/1999/xlink" version="1.1" id="Capa_1" x="0px" y="0px" viewBox="0 0 93.646 93.646" style="enable-background:new 0 0 93.646 93.646;" xml:space="preserve" width="512px" height="512px"><g><g>
	<path d="M67.971,49.778l-9.378-10.345c-0.584-0.644-1.121-1.971-1.148-2.841L57.1,25.858v-0.311c0-1.654-1.346-3-3-3h-9.18h-3.648   c-1.478,0-3.127,1.047-3.756,2.384l-12.358,26.25c-0.342,0.728-0.376,1.541-0.096,2.292c0.28,0.75,0.84,1.342,1.575,1.666   l1.821,0.803c0.388,0.171,0.802,0.258,1.231,0.258h0c1.177,0,2.273-0.669,2.794-1.704l5.789-11.517v11.576   c-0.024,0.067-0.059,0.128-0.081,0.196l-9.783,30.638c-0.407,1.276-0.283,2.619,0.35,3.781s1.693,1.994,2.987,2.343l0.654,0.177   c0.428,0.116,0.872,0.175,1.318,0.175c2.251,0,4.296-1.481,4.974-3.603l9.141-28.628l3.242,7.941   c0.791,1.937,1.645,5.329,1.865,7.409l1.551,14.621c0.249,2.341,2.1,4.04,4.402,4.04c0.377,0,0.76-0.046,1.137-0.137l0.659-0.16   c2.624-0.635,4.478-3.331,4.133-6.008l-2.297-17.828c-0.292-2.265-1.269-5.812-2.178-7.907l-3.102-7.144   c-0.04-0.093-0.097-0.177-0.143-0.267v-4.841l5.59,5.836c0.556,0.581,1.3,0.901,2.094,0.901c0.803,0,1.553-0.326,2.111-0.918   l1.034-1.098C69.036,52.899,69.055,50.973,67.971,49.778z" data-original="#000000" class="active-path" data-old_color="#000000" fill="#FFFFFF"/>
	<path d="M48.52,20.005c5.516,0,10.003-4.487,10.003-10.003C58.523,4.487,54.036,0,48.52,0c-5.515,0-10.001,4.487-10.001,10.002   C38.518,15.518,43.005,20.005,48.52,20.005z" data-original="#000000" class="active-path" data-old_color="#000000" fill="#FFFFFF"/>
</g></g> </svg>
